<?xml version="1.0" encoding="UTF-8"?>
<svg version="1.2" baseProfile="tiny-ps" xmlns="http://www.w3.org/2000/svg" width="270.9" height="270.9" viewBox="0 0 270.9 270.9">
 <g fill="#483d2c">
  <path d="M0 135.467 l0 -135.467 135.467 0 135.467 0 0 135.467 0 135.467 -135.467 0 -135.467 0 0 -135.467z m137.372 86.386 c3.572 -4.419 12.647 -16.060 13.441 -17.198 l0.820 -1.164 -1.640 -1.667 c-5.450 -5.583 -8.361 -12.488 -9.631 -22.754 l-0.159 -1.270 -4.762 0 -4.736 0 0 0.873 c0 1.349 -0.741 5.345 -1.614 8.599 -1.535 5.847 -3.969 10.345 -7.620 14.155 l-2.117 2.196 1.482 1.984 c1.720 2.249 12.462 16.007 13.679 17.489 0.450 0.556 0.900 0.979 0.979 0.926 0.106 -0.026 0.952 -1.005 1.879 -2.170z m31.062 -25.665 c2.408 -1.164 4.498 -3.360 5.768 -6.032 0.926 -1.931 1.587 -3.995 1.270 -3.836 -0.106 0.053 -0.767 0.397 -1.508 0.767 -2.090 1.111 -3.969 1.561 -6.509 1.561 -2.990 0 -4.657 -0.344 -7.117 -1.508 -3.360 -1.587 -6.429 -5.186 -7.514 -8.731 -0.159 -0.503 -0.397 -0.609 -1.244 -0.609 -0.556 0 -1.032 0.053 -1.032 0.132 0 0.079 0.238 1.270 0.529 2.646 1.535 7.038 4.471 12.224 8.440 14.870 3.228 2.196 5.583 2.408 8.916 0.741z m-58.182 0 c4.233 -2.064 7.885 -7.964 9.472 -15.346 0.238 -1.164 0.503 -2.328 0.582 -2.566 0.079 -0.397 -0.053 -0.476 -0.847 -0.476 -0.661 0 -0.979 0.132 -1.085 0.476 -0.661 2.011 -2.196 4.524 -3.678 5.980 -4.524 4.471 -11.880 5.715 -17.357 2.910 -0.741 -0.370 -1.402 -0.609 -1.455 -0.556 -0.238 0.238 1.005 3.519 1.905 4.974 1.429 2.355 3.889 4.392 6.271 5.159 1.720 0.556 4.366 0.317 6.191 -0.556z m57.706 -26.670 c1.085 -0.688 2.170 -2.355 2.170 -3.254 0 -0.952 -1.138 -2.805 -2.143 -3.466 l-1.032 -0.688 -31.433 0.026 c-19.288 0.026 -31.671 0.132 -32.068 0.265 -0.900 0.370 -2.011 1.587 -2.514 2.778 -0.344 0.820 -0.370 1.191 -0.132 1.852 0.476 1.429 1.879 2.778 3.228 3.096 0.476 0.132 14.817 0.185 31.856 0.185 l30.956 -0.053 1.111 -0.741z m23.072 -15.293 c2.725 -0.661 6.615 -2.461 8.837 -4.048 9.287 -6.641 12.144 -18.680 6.932 -29.342 -4.710 -9.604 -14.102 -14.155 -24.897 -12.065 -13.203 2.540 -22.886 12.171 -28.734 28.601 -1.746 4.921 -3.678 13.467 -3.678 16.378 l0 1.032 2.910 0 2.910 0 0.132 -0.714 c1.402 -6.562 6.218 -13.017 11.800 -15.796 2.910 -1.482 4.630 -1.826 8.017 -1.693 2.302 0.079 2.884 0.212 4.207 0.873 1.879 0.926 3.678 2.858 4.260 4.551 0.926 2.725 0.397 7.170 -1.270 10.848 -0.397 0.820 -0.635 1.535 -0.556 1.614 0.714 0.714 5.900 0.582 9.128 -0.238z m-102.711 0.132 c0.450 -0.132 0.556 -0.291 0.423 -0.609 -1.323 -3.122 -1.799 -5.054 -1.905 -7.858 -0.132 -3.651 0.317 -4.948 2.487 -6.985 1.720 -1.640 3.122 -2.275 5.424 -2.514 4.710 -0.503 9.472 1.376 13.758 5.371 3.254 3.069 5.477 6.773 6.747 11.377 l0.450 1.640 3.016 0 c1.640 0 2.990 -0.053 2.990 -0.106 0 -0.079 -0.185 -1.535 -0.397 -3.254 -1.614 -12.171 -6.668 -24.395 -13.203 -31.776 -6.906 -7.832 -15.372 -11.721 -24.633 -11.351 -6.509 0.265 -11.245 2.408 -15.584 7.117 -6.800 7.329 -8.149 17.383 -3.598 26.723 2.858 5.847 9.260 10.742 16.007 12.224 1.852 0.423 6.641 0.423 8.017 0z m51.911 -0.952 c0 -4.128 1.508 -13.044 3.466 -20.585 2.170 -8.308 6.826 -21.352 10.954 -30.559 3.254 -7.302 4.260 -10.530 4.524 -14.552 0.317 -4.789 -0.952 -9.657 -4.233 -16.140 -3.942 -7.805 -10.213 -16.510 -17.251 -24.024 l-2.143 -2.302 -1.720 1.799 c-6.535 6.932 -14.314 17.754 -17.754 24.712 -3.678 7.382 -4.815 13.097 -3.731 18.733 0.529 2.858 1.429 5.371 4.207 11.906 4.048 9.578 6.747 16.854 9.234 24.871 2.831 9.260 4.921 20.029 4.921 25.612 l0 1.905 4.762 0 4.762 0 0 -1.376z"/>
 </g>
 <g fill="#f1ddbd">
  <path d="M134.250 224.552 c-0.582 -0.741 -3.572 -4.524 -6.588 -8.387 -3.043 -3.863 -6.482 -8.281 -7.673 -9.869 l-2.143 -2.831 2.540 -2.593 c3.916 -3.969 6.324 -8.334 7.938 -14.420 0.847 -3.228 1.587 -7.223 1.587 -8.573 l0 -0.847 5.556 -0.079 5.530 -0.079 0.159 1.455 c0.344 2.990 1.270 7.355 2.143 10.107 1.746 5.371 4.022 9.128 7.911 12.991 l1.958 1.931 -2.566 3.440 c-1.429 1.879 -4.895 6.324 -7.699 9.895 -2.831 3.572 -5.636 7.091 -6.218 7.858 -0.609 0.767 -1.138 1.376 -1.217 1.376 -0.079 0.026 -0.609 -0.609 -1.217 -1.376z"/>
  <path d="M161.607 197.776 c-3.175 -1.032 -6.615 -4.366 -8.573 -8.361 -1.614 -3.254 -2.487 -6.218 -3.387 -11.536 l-0.132 -0.873 1.958 0 c1.799 0 1.958 0.053 2.143 0.609 1.085 3.545 4.154 7.117 7.514 8.731 4.710 2.223 9.075 1.958 13.441 -0.873 1.296 -0.820 1.640 -0.952 1.746 -0.609 0.317 0.794 0.132 2.381 -0.476 4.101 -1.376 3.863 -3.598 6.535 -6.694 8.070 -1.693 0.847 -2.275 0.979 -4.128 1.058 -1.402 0.053 -2.593 -0.053 -3.413 -0.317z"/>
  <path d="M103.267 197.538 c-2.381 -0.767 -4.842 -2.805 -6.271 -5.159 -1.535 -2.540 -2.778 -7.117 -2.090 -7.779 0.079 -0.106 0.529 0.106 0.979 0.450 2.090 1.587 5.503 2.805 7.858 2.805 1.746 0 5.027 -0.900 6.906 -1.905 2.381 -1.270 4.710 -3.678 5.847 -6.059 0.503 -1.085 1.005 -2.170 1.085 -2.408 0.106 -0.397 0.450 -0.476 1.958 -0.476 l1.826 0 -0.106 0.741 c-1.164 7.541 -3.519 13.282 -6.826 16.616 -2.593 2.619 -4.233 3.387 -7.541 3.466 -1.587 0.053 -2.910 -0.053 -3.625 -0.291z"/>
  <path d="M103.293 170.947 c-2.540 -0.635 -4.128 -3.651 -3.281 -6.244 0.397 -1.191 1.720 -2.725 2.619 -3.096 0.450 -0.159 12.488 -0.265 32.888 -0.291 l32.173 -0.026 1.058 0.688 c2.884 1.905 2.884 6.456 0 8.334 l-1.111 0.741 -31.750 0.053 c-17.489 0 -32.147 -0.053 -32.597 -0.159z"/>
  <path d="M182.192 155.575 c-2.143 -0.397 -2.117 -0.265 -0.952 -2.699 2.752 -5.741 2.805 -9.631 0.132 -12.594 -2.223 -2.461 -5.768 -3.466 -9.472 -2.699 -4.868 1.005 -10.213 5.398 -13.203 10.848 -0.900 1.614 -2.090 4.762 -2.461 6.429 l-0.132 0.714 -3.810 0 -3.810 0 0.132 -1.773 c0.317 -4.762 1.905 -12.065 3.757 -17.224 5.847 -16.431 15.531 -26.061 28.734 -28.601 3.122 -0.609 7.752 -0.741 10.345 -0.265 8.837 1.561 15.531 8.017 18.018 17.357 0.582 2.196 0.688 3.175 0.688 6.429 0.026 5.318 -0.847 8.758 -3.201 12.779 -1.138 1.958 -4.180 5.186 -6.297 6.694 -2.223 1.587 -6.112 3.360 -8.837 4.075 -2.514 0.635 -7.541 0.926 -9.631 0.529z"/>
  <path d="M79.507 155.152 c-1.005 -0.212 -2.778 -0.794 -3.916 -1.296 -7.832 -3.360 -12.541 -9.075 -14.367 -17.462 -0.556 -2.514 -0.556 -7.911 0 -10.398 1.905 -8.652 8.043 -15.452 16.087 -17.806 2.725 -0.794 9.446 -1.005 12.700 -0.397 13.864 2.593 24.209 13.626 29.660 31.671 1.482 4.895 2.831 12.118 2.831 15.214 l0 0.900 -3.784 0 -3.810 0 -0.450 -1.640 c-2.037 -7.276 -7.011 -13.150 -13.309 -15.690 -3.122 -1.270 -6.694 -1.376 -8.837 -0.265 -1.429 0.741 -3.466 2.831 -4.101 4.233 -1.164 2.434 -0.661 6.271 1.349 10.636 l0.873 1.905 -0.952 0.317 c-1.640 0.503 -7.858 0.556 -9.975 0.079z"/>
  <path d="M129.910 153.670 c0 -5.583 -2.090 -16.351 -4.921 -25.612 -2.487 -8.017 -5.186 -15.293 -9.234 -24.871 -3.836 -8.996 -4.630 -11.880 -4.630 -16.669 0 -5.080 1.217 -9.631 4.154 -15.557 3.572 -7.250 11.748 -18.468 18.547 -25.559 l1.746 -1.799 2.064 2.196 c7.726 8.281 14.049 16.986 18.097 24.977 3.413 6.747 4.524 11.165 4.233 16.933 -0.212 4.710 -1.058 7.567 -4.524 15.346 -4.128 9.208 -8.784 22.251 -10.954 30.559 -1.958 7.541 -3.466 16.457 -3.466 20.585 l0 1.376 -5.556 0 -5.556 0 0 -1.905z"/>
 </g>
</svg>
